# xmcd
#
# Track frame offsets: 
#        150
#        10883
#        24308
#        37935
#        53017
#        65882
#        83890
#        94058
#        109290
#        124148
#        136191
#        148394
#        161439
#        174440
#        187103
#        200636
#        209356
#        220568
#        234895
#        248688
#        259145
#
# Disc length: 3593 seconds
#
# Revision: 0
# Processed by: cddbd v1.5.2PL0 Copyright (c) Steve Scherf et al.
# Submitted via: ExactAudioCopy v0.99pb5
#
DISCID=290e0715
DTITLE=Kid Thomas - Adds
DYEAR=2001
DGENRE=Blues
TTITLE0=Tell Me Baby
TTITLE1=In A Cold Cold World
TTITLE2=It's A Lie
TTITLE3=Why Do I Have To Cry
TTITLE4=Williow Brook
TTITLE5=You Are An Angel
TTITLE6=Cozy Special
TTITLE7=Bad Luck
TTITLE8=Come Back
TTITLE9=Cozy Lounge
TTITLE10=Five Long Years
TTITLE11=I've Been
TTITLE12=Ninety Nine
TTITLE13=Here She Comes
TTITLE14=Dog Me Around
TTITLE15=Rockin' This Joint Tonite
TTITLE16=You Are An Angel
TTITLE17=The Hurt Is On
TTITLE18=I Love You So
TTITLE19=Wail Baby Wail
TTITLE20=Lookie There
EXTD=
EXTT0=
EXTT1=
EXTT2=
EXTT3=
EXTT4=
EXTT5=
EXTT6=
EXTT7=
EXTT8=
EXTT9=
EXTT10=
EXTT11=
EXTT12=
EXTT13=
EXTT14=
EXTT15=
EXTT16=
EXTT17=
EXTT18=
EXTT19=
EXTT20=
PLAYORDER=
